<svg width="148" height="56" viewBox="0 0 148 56" xmlns="http://www.w3.org/2000/svg">
    <g fill="#01482F" fill-rule="nonzero">
        <path d="M32.821 36.535h-7.534c-.541 0-1.02.35-1.185.864l-1.078 3.362a1.244 1.244 0 0 1-1.185.865h-4.574a1.244 1.244 0 0 1-1.163-1.688l9.429-24.762a1.244 1.244 0 0 1 1.163-.802h4.7c.515 0 .977.318 1.161.799l9.5 24.762a1.244 1.244 0 0 1-1.162 1.69h-4.61c-.54 0-1.018-.347-1.185-.86l-1.093-3.37a1.244 1.244 0 0 0-1.184-.86zm-5.104-5.072h2.667a1.244 1.244 0 0 0 1.184-1.627l-1.337-4.145a1.244 1.244 0 0 0-2.37.003l-1.329 4.144a1.244 1.244 0 0 0 1.185 1.625zM57.754 32.005h-1.691c-.688 0-1.245.558-1.245 1.245v7.131c0 .688-.557 1.245-1.244 1.245h-4.332a1.244 1.244 0 0 1-1.245-1.245V15.62c0-.688.557-1.245 1.245-1.245h9.89c3.356 0 5.979.718 7.87 2.153 1.892 1.435 2.838 3.462 2.838 6.083 0 1.896-.399 3.468-1.195 4.716-.797 1.248-2.044 2.259-3.741 3.032l4.952 9.445a1.244 1.244 0 0 1-1.102 1.823H64.26c-.465 0-.89-.26-1.105-.671l-4.297-8.279a1.244 1.244 0 0 0-1.105-.67zm-1.691-5.072h3.07c1.295 0 2.27-.327 2.924-.982.654-.656.981-1.57.981-2.742 0-1.173-.33-2.094-.99-2.761-.662-.668-1.633-1.001-2.916-1.001h-3.07c-.687 0-1.244.557-1.244 1.244v4.998c0 .687.557 1.244 1.245 1.244zM101.154 28.561c0 2.658-.512 5.01-1.536 7.057-1.023 2.046-2.477 3.621-4.362 4.726C93.37 41.448 91.223 42 88.814 42c-2.41 0-4.547-.533-6.413-1.6-1.866-1.067-3.32-2.593-4.363-4.576-1.043-1.984-1.59-4.262-1.642-6.832v-1.535c0-2.67.509-5.025 1.526-7.065s2.474-3.616 4.372-4.726c1.898-1.11 4.058-1.666 6.48-1.666 2.398 0 4.535.549 6.414 1.647 1.878 1.098 3.339 2.66 4.382 4.689 1.043 2.027 1.57 4.351 1.584 6.971v1.254zm-6.938-1.141c0-2.708-.47-4.764-1.409-6.167-.94-1.404-2.283-2.106-4.032-2.106-3.42 0-5.227 2.47-5.422 7.412l-.02 2.002c0 2.67.46 4.723 1.38 6.158.92 1.435 2.287 2.153 4.1 2.153 1.724 0 3.052-.705 3.984-2.115.933-1.41 1.406-3.438 1.42-6.083V27.42zM122.663 36.535h-7.535c-.541 0-1.02.35-1.185.864l-1.078 3.362a1.244 1.244 0 0 1-1.185.865h-4.574a1.244 1.244 0 0 1-1.163-1.688l9.43-24.762a1.244 1.244 0 0 1 1.162-.802h4.7c.515 0 .977.318 1.162.799l9.5 24.762a1.244 1.244 0 0 1-1.162 1.69h-4.611c-.54 0-1.018-.347-1.184-.86l-1.094-3.37a1.244 1.244 0 0 0-1.183-.86zm-5.105-5.072h2.668a1.244 1.244 0 0 0 1.184-1.627l-1.338-4.145a1.244 1.244 0 0 0-2.37.003l-1.328 4.144a1.244 1.244 0 0 0 1.184 1.625z"/>
    </g>
</svg>
