<svg width="24" height="24" viewBox="0 0 24 24" xmlns="http://www.w3.org/2000/svg">
    <path d="M13 3a1 1 0 0 1 .993.883L14 4h7a1 1 0 0 1 .117 1.993L21 6v7a4 4 0 0 1-4 4h-2.749l2.549 3.4.069.105A1 1 0 0 1 15.2 21.6L12.5 18h-1l-2.7 3.6a1 1 0 0 1-1.669-1.095L7.2 20.4 9.749 17H7a4 4 0 0 1-3.995-3.8L3 13V6a1 1 0 0 1-.117-1.993L3 4h7a1 1 0 0 1 1-1h2zm6 3H5v7a2 2 0 0 0 2 2h10a2 2 0 0 0 2-2V6zm-4 5a1 1 0 0 1 0 2h-2a1 1 0 0 1 0-2h2zM9 8a1 1 0 0 1 1 1v1a1 1 0 0 1-1 1H8a1 1 0 0 1-1-1V9a1 1 0 0 1 1-1h1zm7 0a1 1 0 0 1 0 2h-3a1 1 0 0 1 0-2h3z" fill="#F7F0F0" fill-rule="evenodd"/>
</svg>
