<svg width="24" height="24" viewBox="0 0 24 24" xmlns="http://www.w3.org/2000/svg">
    <path d="M20.197 18A.965.965 0 0 1 21 19.5l-.703 1.055a1 1 0 0 1-.832.445H4.535a1 1 0 0 1-.832-.445L3 19.5a.965.965 0 0 1 .803-1.5h16.394zM16 3a4 4 0 0 1 4 4v7a3 3 0 0 1-3 3H7a3 3 0 0 1-3-3V7a4 4 0 0 1 4-4zm0 2H8a2 2 0 0 0-2 2v7a1 1 0 0 0 1 1h10a1 1 0 0 0 1-1V7a2 2 0 0 0-2-2zm-1 2a1 1 0 0 1 1 1v5a1 1 0 0 1-1 1H9a1 1 0 0 1-1-1V9a2 2 0 0 1 2-2h5zm-2.5 4h-2a.5.5 0 0 0-.09.992l.09.008h2a.5.5 0 1 0 0-1zm1-2h-3a.5.5 0 0 0-.09.992l.09.008h3a.5.5 0 1 0 0-1z" fill="#F7F0F0" fill-rule="evenodd"/>
</svg>
