<svg width="24" height="24" viewBox="0 0 24 24" xmlns="http://www.w3.org/2000/svg">
    <path d="M17 3a3 3 0 0 1 3 3v12a3 3 0 0 1-3 3H7a3 3 0 0 1-3-3V8a5 5 0 0 1 5-5zm0 2h-6v2a3 3 0 0 1-2.824 2.995L8 10H6v8a1 1 0 0 0 1 1h10a1 1 0 0 0 1-1V6a1 1 0 0 0-1-1zm-2 10a1 1 0 0 1 .117 1.993L15 17H9a1 1 0 0 1-.117-1.993L9 15h6zm0-4a1 1 0 0 1 .117 1.993L15 13H9a1 1 0 0 1-.117-1.993L9 11h6zm0-4a1 1 0 0 1 .117 1.993L15 9h-2a1 1 0 0 1-.117-1.993L13 7h2zM9 5l-.176.005A3 3 0 0 0 6 8h2a1 1 0 0 0 .993-.883L9 7V5z" fill="#F7F0F0" fill-rule="evenodd"/>
</svg>
