<svg width="24" height="24" viewBox="0 0 24 24" xmlns="http://www.w3.org/2000/svg">
    <path d="M14 2a4 4 0 0 1 4 4v1.999L19 8l.176.005A3 3 0 0 1 22 11v9.5l-.008.156A1.5 1.5 0 0 1 21.4 21.7l-.12.081a1.5 1.5 0 0 1-1.787-.17l-.096-.096-2.676-2.22-.071-.095-.063-.07a.5.5 0 0 0-.337-.13H12l-.176-.005A3 3 0 0 1 9 16v-2h-.173l-2.56 2.56a2.5 2.5 0 0 1-3.404.122l-.13-.121A2.5 2.5 0 0 1 2 14.793V6a4 4 0 0 1 4-4zm5 8-1-.001a4 4 0 0 1-3.8 3.996L14 14h-3v2l.007.117A1 1 0 0 0 12 17h4.25l.18.007a2.5 2.5 0 0 1 1.706.852l.028.033L20 19.416V11l-.007-.117A1 1 0 0 0 19 10zm-5-6H6a2 2 0 0 0-2 2v8.793a.5.5 0 0 0 .854.353L7.56 12.44A1.5 1.5 0 0 1 8.62 12H14a2 2 0 0 0 2-2V6a2 2 0 0 0-2-2zM7 7a1 1 0 1 1 0 2 1 1 0 0 1 0-2zm3 0a1 1 0 1 1 0 2 1 1 0 0 1 0-2zm3 0a1 1 0 1 1 0 2 1 1 0 0 1 0-2z" fill="#F7F0F0" fill-rule="evenodd"/>
</svg>
