<svg width="24" height="24" viewBox="0 0 24 24" xmlns="http://www.w3.org/2000/svg">
    <path d="M19 3a2 2 0 1 1-1.732 3.001L16.5 6l-.144.007a1.5 1.5 0 0 0-1.35 1.349L15 7.5l.001.768A2 2 0 0 1 16 10v1.5h2.063a2 2 0 1 1 0 1.001L16 12.5V14a2 2 0 0 1-.999 1.732L15 17a1.5 1.5 0 0 0 1.356 1.493l.144.007h.563a2 2 0 1 1 0 1.001L16.5 19.5a2.5 2.5 0 0 1-2.495-2.336L14 17v-1h-3.5v.5l-.005.164a2.5 2.5 0 0 1-2.33 2.33L8 19H7a2 2 0 1 1-.268-1H8l.144-.007a1.5 1.5 0 0 0 1.35-1.349L9.5 16.5v-.563A2 2 0 0 1 8 14v-1.5l-2.063.001a2 2 0 1 1 0-1.001H8V10a2 2 0 0 1 1.5-1.937V7.5a1.5 1.5 0 0 0-1.356-1.493L8 6l-1.268.001A2 2 0 1 1 7 5h1a2.5 2.5 0 0 1 2.495 2.336l.005.164V8H14v-.5l.005-.164a2.5 2.5 0 0 1 2.33-2.33L16.5 5h.5a2 2 0 0 1 2-2zm-7 6-1.059 1.543-1.794.53 1.14 1.484-.05 1.87L12 13.801l1.763.626-.05-1.87 1.14-1.484-1.794-.53L12 9z" fill="#F7F0F0" fill-rule="evenodd"/>
</svg>
