<svg width="24" height="24" viewBox="0 0 24 24" xmlns="http://www.w3.org/2000/svg">
    <path d="m10.499 17.75.087.078L12 19.243l1.414-1.415a1 1 0 0 1 1.327-.077l.087.077a1 1 0 0 1 .078 1.327l-.078.088-2.12 2.121a1 1 0 0 1-1.328.078l-.087-.078-2.121-2.121a1 1 0 0 1 1.327-1.492zM19 2a3 3 0 0 1 2.995 2.824L22 5v2c0 .768-.289 1.47-.764 2 .438.49.718 1.124.759 1.824L22 11v2a3 3 0 0 1-2.824 2.995L19 16H5a3 3 0 0 1-2.995-2.824L2 13v-2c0-.768.289-1.47.764-2a2.988 2.988 0 0 1-.759-1.824L2 7V5a3 3 0 0 1 2.824-2.995L5 2h14zm0 8H5a1 1 0 0 0-.993.883L4 11v2a1 1 0 0 0 .883.993L5 14h14a1 1 0 0 0 .993-.883L20 13v-2a1 1 0 0 0-1-1zm-2 1a1 1 0 1 1 0 2 1 1 0 0 1 0-2zm-3 0a1 1 0 1 1 0 2 1 1 0 0 1 0-2zm-4 0a1 1 0 0 1 0 2H7a1 1 0 0 1 0-2h3zm9-7H5a1 1 0 0 0-.993.883L4 5v2a1 1 0 0 0 .883.993L5 8h14a1 1 0 0 0 .993-.883L20 7V5a1 1 0 0 0-1-1zm-2 1a1 1 0 1 1 0 2 1 1 0 0 1 0-2zm-3 0a1 1 0 1 1 0 2 1 1 0 0 1 0-2zm-4 0a1 1 0 0 1 0 2H7a1 1 0 1 1 0-2h3z" fill="#F7F0F0" fill-rule="evenodd"/>
</svg>
