<svg width="24" height="24" viewBox="0 0 24 24" xmlns="http://www.w3.org/2000/svg">
    <path d="M12.012 14c1.24 0 3.003.639 4.47 1.498.772.453 1.4.934 1.827 1.457.906 1.11 1.018 2.676-.317 3.633l-.154.104-.49.308H6.68l-.489-.308c-.465-.293-.781-.66-.967-1.06L7 19.003l2.939 1.043L9.91 19h6.86c.493-.311.026-.894-.807-1.464l-.134-.09-.285-.178-.303-.174-.078-.043-.08-.043-.322-.164-.33-.156-.334-.145-.333-.132-.328-.117-.161-.053-.158-.048-.307-.081a3.542 3.542 0 0 0-.798-.112c-.208 0-.454.033-.724.092l-.207.049-.308.085-.08.025-.079.025-.324.11-.027.01 1.492-1.941-.988-.295c.449-.103.872-.16 1.245-.16zM6.5 12l1.235 1.8 2.094.618-1.33 1.731.058 2.183-2.057-.73-2.057.73.059-2.183-1.33-1.73 2.093-.619L6.5 12zm5.498-9a5 5 0 1 1 0 10 5 5 0 0 1 0-10zm0 2a3 3 0 1 0 0 6 3 3 0 0 0 0-6z" fill="#F7F0F0" fill-rule="evenodd"/>
</svg>
