<svg width="24" height="24" viewBox="0 0 24 24" xmlns="http://www.w3.org/2000/svg">
    <path d="M12 2c.676 0 1.343.067 1.996.2a1 1 0 0 1-.397 1.96 8 8 0 1 0 6.242 6.244 1 1 0 1 1 1.96-.398c.132.652.199 1.319.199 1.994 0 5.523-4.477 10-10 10S2 17.523 2 12 6.477 2 12 2zm3 9a3 3 0 0 1 .176 5.995L15 17h-1v1a1 1 0 0 1-2 0v-4.5a2.5 2.5 0 0 1 2.336-2.495L14.5 11h.5zm-5-4c1.657 0 3 1.338 3 2.988a2.988 2.988 0 0 1-1.72 2.704l.572.866a.892.892 0 0 1-.341 1.286l-.095.048a1 1 0 0 1-1.287-.34L9.09 12.975H9v.992a1 1 0 0 1-2 0V9.49c0-1.32 1.032-2.4 2.336-2.485L9.5 7h.5zm5 6h-.5a.5.5 0 0 0-.492.41L14 13.5V15h1a1 1 0 0 0 0-2zm-5-4.008h-.5a.5.5 0 0 0-.492.409L9 9.49v1.493h1c.552 0 1-.446 1-.996a.998.998 0 0 0-1-.996zM20 3l.081.003.068.008a1.083 1.083 0 0 1 .222.06l.052.023a1.018 1.018 0 0 1 .172.102l.022.017.09.08a1.008 1.008 0 0 1 .147.186l.021.037c.011.02.022.04.031.06l.023.053a.988.988 0 0 1 .064.254l.003.028.004.07V7a1 1 0 0 1-1.993.117L19 7v-.586l-2.293 2.293a1 1 0 0 1-1.497-1.32l.083-.094L17.584 5H17a1 1 0 0 1-.993-.883L16 4a1 1 0 0 1 .883-.993L17 3h3z" fill="#F7F0F0" fill-rule="evenodd"/>
</svg>
