<svg width="24" height="24" viewBox="0 0 24 24" xmlns="http://www.w3.org/2000/svg">
    <path d="M14 3a3 3 0 0 1 2.995 2.824L17 6v7.292l-.207.208-.707-.707-.11-.102a1.99 1.99 0 0 0-.975-.457L15 6a1 1 0 0 0-.883-.993L14 5H5a1 1 0 0 0-.993.883L4 6v12a1 1 0 0 0 .883.993L5 19h9a1 1 0 0 0 .993-.883L15 18v-.636l.379.379.11.101c.424.367.967.525 1.493.475a2.999 2.999 0 0 1-2.804 2.676L14 21H5a3 3 0 0 1-2.995-2.824L2 18V6a3 3 0 0 1 2.824-2.995L5 3h9zm7.609 8.206.088.077a1 1 0 0 1 .097 1.326l-.077.088-4.207 4.328a1 1 0 0 1-1.342.084l-.082-.073-2.122-2.122a1 1 0 0 1 1.327-1.492l.088.078 1.403 1.404 3.5-3.601a1 1 0 0 1 1.327-.097zM12 15a1 1 0 0 1 0 2H7a1 1 0 0 1 0-2h5zm0-4a1 1 0 0 1 0 2H7a1 1 0 0 1 0-2h5zM8 7a1 1 0 0 1 1 1v1a1 1 0 0 1-1 1H7a1 1 0 0 1-1-1V8a1 1 0 0 1 1-1h1zm4 0a1 1 0 0 1 0 2h-1a1 1 0 0 1 0-2h1z" fill="#F7F0F0" fill-rule="evenodd"/>
</svg>
